# xmcd
# 
# Track frame offsets:
#     150
#     17008
#     33849
#     47038
#     60249
#     77942
#     95616
#     115241
#     135112
#     160562
#     186605
#     206380
#     226137
#     240307
#     254426
#     275492
# 
# Disc length: 3951
# 
# Revision: 1
# Processed by: cddbd v1.5.2PL0 Copyright (c) Steve Scherf et al.
# Submitted via: fre:ac v1.0.17
# 
DISCID=c60f6d10
DTITLE=Arturo Himmer - SAX Plus! Vol.7
DYEAR=2009
DGENRE=Playalong
TTITLE0=September (Earth, Wind and Fire)
TTITLE1=September (Earth, Wind and Fire) MMO
TTITLE2=The Pink Panther (Henry Mancini)
TTITLE3=The Pink Panther (Henry Mancini) MMO
TTITLE4=Cantaloupe Island (Herbie Hancock)
TTITLE5=Cantaloupe Island (Herbie Hancock) MMO
TTITLE6=Europa (Santana)
TTITLE7=Europa (Santana) MMO
TTITLE8=Street Life (The Crusaders)
TTITLE9=Street Life (The Crusaders) MMO
TTITLE10=E.G. Blues (Mezzoforte)
TTITLE11=E.G. Blues (Mezzoforte) MMO
TTITLE12=Peter Gunn (Henri Mancini)
TTITLE13=Peter Gunn (Henri Mancini) MMO
TTITLE14=Don't Know Why (Norah Jones)
TTITLE15=Don't Know Why (Norah Jones) MMO
EXTD=YEAR: 2009
EXTT0=
EXTT1=
EXTT2=
EXTT3=
EXTT4=
EXTT5=
EXTT6=
EXTT7=
EXTT8=
EXTT9=
EXTT10=
EXTT11=
EXTT12=
EXTT13=
EXTT14=
EXTT15=
PLAYORDER=
